<svg width="15" height="15" viewBox="0 0 15 15" fill="none" xmlns="http://www.w3.org/2000/svg">
<path d="M14.8692 2.97677C14.817 2.91437 14.7518 2.86418 14.6782 2.82975C14.6045 2.79532 14.5242 2.77747 14.4428 2.77749H3.24131L2.81913 0.456202C2.79588 0.328207 2.72844 0.212433 2.62858 0.129064C2.52871 0.0456944 2.40275 1.88016e-05 2.27266 0H0.555494C0.408168 0 0.266876 0.0585255 0.1627 0.162701C0.0585251 0.266878 0 0.408171 0 0.555498C0 0.702825 0.0585251 0.844118 0.1627 0.948294C0.266876 1.05247 0.408168 1.111 0.555494 1.111H1.80536L3.58016 10.8523C3.63244 11.1412 3.76011 11.4112 3.95026 11.6349C3.68782 11.88 3.4984 12.193 3.403 12.5393C3.3076 12.8855 3.30994 13.2513 3.40978 13.5963C3.50962 13.9412 3.70304 14.2518 3.96861 14.4935C4.23417 14.7353 4.56149 14.8987 4.91429 14.9658C5.26708 15.0329 5.63155 15.0009 5.96729 14.8735C6.30303 14.746 6.59691 14.5281 6.81636 14.2438C7.0358 13.9596 7.17223 13.6201 7.21051 13.263C7.2488 12.906 7.18744 12.5453 7.03325 12.2209H10.1871C10.0628 12.4811 9.99848 12.7659 9.99889 13.0542C9.99889 13.4387 10.1129 13.8146 10.3266 14.1344C10.5402 14.4541 10.8438 14.7033 11.1991 14.8504C11.5544 14.9976 11.9453 15.0361 12.3224 14.9611C12.6996 14.8861 13.046 14.7009 13.3179 14.429C13.5898 14.1571 13.775 13.8106 13.85 13.4335C13.925 13.0564 13.8865 12.6654 13.7394 12.3102C13.5922 11.9549 13.343 11.6513 13.0233 11.4376C12.7035 11.224 12.3277 11.11 11.9431 11.11H5.21956C5.08947 11.1099 4.96351 11.0643 4.86365 10.9809C4.76378 10.8975 4.69635 10.7817 4.67309 10.6538L4.45298 9.44346H12.5076C12.8979 9.4434 13.2758 9.30638 13.5754 9.05627C13.875 8.80616 14.0773 8.45884 14.147 8.07485L14.9914 3.43228C15.0057 3.35204 15.0021 3.26964 14.981 3.19091C14.9599 3.11219 14.9217 3.03908 14.8692 2.97677ZM6.11043 13.0542C6.11043 13.219 6.06156 13.3801 5.97001 13.5171C5.87845 13.6541 5.74831 13.7609 5.59606 13.824C5.4438 13.8871 5.27627 13.9036 5.11463 13.8714C4.953 13.8393 4.80453 13.7599 4.688 13.6434C4.57147 13.5269 4.49211 13.3784 4.45996 13.2168C4.42781 13.0551 4.44431 12.8876 4.50738 12.7353C4.57044 12.5831 4.67724 12.4529 4.81427 12.3614C4.95129 12.2698 5.11239 12.2209 5.27719 12.2209C5.49818 12.2209 5.71012 12.3087 5.86638 12.465C6.02264 12.6213 6.11043 12.8332 6.11043 13.0542ZM12.7764 13.0542C12.7764 13.219 12.7275 13.3801 12.6359 13.5171C12.5444 13.6541 12.4142 13.7609 12.262 13.824C12.1097 13.8871 11.9422 13.9036 11.7806 13.8714C11.6189 13.8393 11.4705 13.7599 11.3539 13.6434C11.2374 13.5269 11.158 13.3784 11.1259 13.2168C11.0937 13.0551 11.1102 12.8876 11.1733 12.7353C11.2364 12.5831 11.3432 12.4529 11.4802 12.3614C11.6172 12.2698 11.7783 12.2209 11.9431 12.2209C12.1641 12.2209 12.376 12.3087 12.5323 12.465C12.6886 12.6213 12.7764 12.8332 12.7764 13.0542Z" fill="white"/>
</svg>
