<svg width="26" height="26" viewBox="0 0 26 26" fill="none" xmlns="http://www.w3.org/2000/svg">
<path d="M13 0.8125C10.5895 0.8125 8.23322 1.52728 6.22899 2.86646C4.22477 4.20564 2.66267 6.10907 1.74022 8.33604C0.817781 10.563 0.576428 13.0135 1.04668 15.3777C1.51694 17.7418 2.67769 19.9134 4.38214 21.6179C6.08659 23.3223 8.2582 24.4831 10.6223 24.9533C12.9865 25.4236 15.437 25.1822 17.664 24.2598C19.8909 23.3373 21.7944 21.7752 23.1335 19.771C24.4727 17.7668 25.1875 15.4105 25.1875 13C25.1841 9.76872 23.899 6.67076 21.6141 4.3859C19.3292 2.10104 16.2313 0.815912 13 0.8125ZM17.4133 16.0867C17.5004 16.1738 17.5695 16.2772 17.6166 16.391C17.6638 16.5048 17.688 16.6268 17.688 16.75C17.688 16.8732 17.6638 16.9952 17.6166 17.109C17.5695 17.2228 17.5004 17.3262 17.4133 17.4133C17.3262 17.5004 17.2228 17.5695 17.109 17.6166C16.9952 17.6638 16.8732 17.688 16.75 17.688C16.6268 17.688 16.5048 17.6638 16.391 17.6166C16.2772 17.5695 16.1738 17.5004 16.0867 17.4133L13 14.3254L9.91329 17.4133C9.82618 17.5004 9.72278 17.5695 9.60897 17.6166C9.49516 17.6638 9.37319 17.688 9.25 17.688C9.12682 17.688 9.00485 17.6638 8.89104 17.6166C8.77723 17.5695 8.67383 17.5004 8.58672 17.4133C8.49962 17.3262 8.43053 17.2228 8.38339 17.109C8.33625 16.9952 8.31198 16.8732 8.31198 16.75C8.31198 16.6268 8.33625 16.5048 8.38339 16.391C8.43053 16.2772 8.49962 16.1738 8.58672 16.0867L11.6746 13L8.58672 9.91328C8.41081 9.73737 8.31198 9.49878 8.31198 9.25C8.31198 9.00122 8.41081 8.76263 8.58672 8.58672C8.76264 8.4108 9.00123 8.31198 9.25 8.31198C9.49878 8.31198 9.73737 8.4108 9.91329 8.58672L13 11.6746L16.0867 8.58672C16.1738 8.49961 16.2772 8.43052 16.391 8.38338C16.5048 8.33624 16.6268 8.31198 16.75 8.31198C16.8732 8.31198 16.9952 8.33624 17.109 8.38338C17.2228 8.43052 17.3262 8.49961 17.4133 8.58672C17.5004 8.67382 17.5695 8.77723 17.6166 8.89103C17.6638 9.00484 17.688 9.12682 17.688 9.25C17.688 9.37318 17.6638 9.49516 17.6166 9.60896C17.5695 9.72277 17.5004 9.82618 17.4133 9.91328L14.3254 13L17.4133 16.0867Z" fill="white"/>
</svg>
