<svg width="14" height="18" viewBox="0 0 14 18" fill="none" xmlns="http://www.w3.org/2000/svg">
<path d="M13.6922 5.43281L9.31719 1.05781C9.2591 0.999791 9.19015 0.953782 9.11428 0.922415C9.03841 0.891047 8.9571 0.874936 8.875 0.875H1.375C1.04348 0.875 0.725537 1.0067 0.491116 1.24112C0.256696 1.47554 0.125 1.79348 0.125 2.125V15.875C0.125 16.2065 0.256696 16.5245 0.491116 16.7589C0.725537 16.9933 1.04348 17.125 1.375 17.125H12.625C12.9565 17.125 13.2745 16.9933 13.5089 16.7589C13.7433 16.5245 13.875 16.2065 13.875 15.875V5.875C13.8751 5.7929 13.859 5.71159 13.8276 5.63572C13.7962 5.55985 13.7502 5.4909 13.6922 5.43281ZM9.31719 11.9422L7.44219 13.8172C7.38414 13.8753 7.31521 13.9214 7.23934 13.9529C7.16346 13.9843 7.08213 14.0005 7 14.0005C6.91787 14.0005 6.83654 13.9843 6.76066 13.9529C6.68479 13.9214 6.61586 13.8753 6.55781 13.8172L4.68281 11.9422C4.56554 11.8249 4.49965 11.6659 4.49965 11.5C4.49965 11.3341 4.56554 11.1751 4.68281 11.0578C4.80009 10.9405 4.95915 10.8747 5.125 10.8747C5.29085 10.8747 5.44991 10.9405 5.56719 11.0578L6.375 11.8664V8.375C6.375 8.20924 6.44085 8.05027 6.55806 7.93306C6.67527 7.81585 6.83424 7.75 7 7.75C7.16576 7.75 7.32473 7.81585 7.44194 7.93306C7.55915 8.05027 7.625 8.20924 7.625 8.375V11.8664L8.43281 11.0578C8.55009 10.9405 8.70915 10.8747 8.875 10.8747C9.04085 10.8747 9.19991 10.9405 9.31719 11.0578C9.43446 11.1751 9.50035 11.3341 9.50035 11.5C9.50035 11.6659 9.43446 11.8249 9.31719 11.9422ZM8.875 5.875V2.4375L12.3125 5.875H8.875Z" fill="white"/>
</svg>
