<svg width="16" height="16" viewBox="0 0 16 16" fill="none" xmlns="http://www.w3.org/2000/svg">
<path d="M8.78125 12.0625C8.78125 12.217 8.73543 12.3681 8.64959 12.4965C8.56374 12.625 8.44173 12.7252 8.29897 12.7843C8.15622 12.8434 7.99914 12.8589 7.84759 12.8287C7.69604 12.7986 7.55684 12.7242 7.44758 12.6149C7.33832 12.5057 7.26391 12.3665 7.23377 12.2149C7.20362 12.0634 7.21909 11.9063 7.27822 11.7635C7.33735 11.6208 7.43749 11.4988 7.56596 11.4129C7.69444 11.3271 7.84549 11.2812 8 11.2812C8.2072 11.2812 8.40592 11.3636 8.55243 11.5101C8.69894 11.6566 8.78125 11.8553 8.78125 12.0625ZM8 3.78125C6.35938 3.78125 5.03125 4.97266 5.03125 6.4375V6.75C5.03125 6.87432 5.08064 6.99355 5.16855 7.08146C5.25646 7.16936 5.37568 7.21875 5.5 7.21875C5.62432 7.21875 5.74355 7.16936 5.83146 7.08146C5.91937 6.99355 5.96875 6.87432 5.96875 6.75V6.4375C5.96875 5.48984 6.87969 4.71875 8 4.71875C9.12032 4.71875 10.0313 5.48984 10.0313 6.4375C10.0313 7.38516 9.12032 8.15625 8 8.15625C7.87568 8.15625 7.75646 8.20564 7.66855 8.29354C7.58064 8.38145 7.53125 8.50068 7.53125 8.625V9.25C7.53125 9.37432 7.58064 9.49355 7.66855 9.58146C7.75646 9.66936 7.87568 9.71875 8 9.71875C8.12432 9.71875 8.24355 9.66936 8.33146 9.58146C8.41937 9.49355 8.46875 9.37432 8.46875 9.25V9.06094C9.8836 8.85938 10.9688 7.75938 10.9688 6.4375C10.9688 4.97266 9.64063 3.78125 8 3.78125ZM15.9688 8C15.9688 9.57607 15.5014 11.1167 14.6258 12.4272C13.7502 13.7377 12.5056 14.759 11.0495 15.3622C9.59341 15.9653 7.99116 16.1231 6.44538 15.8156C4.89959 15.5082 3.4797 14.7492 2.36525 13.6348C1.2508 12.5203 0.491847 11.1004 0.184371 9.55463C-0.123105 8.00884 0.0347026 6.40659 0.637838 4.95049C1.24097 3.49439 2.26235 2.24984 3.5728 1.37423C4.88326 0.498609 6.42393 0.03125 8 0.03125C10.1127 0.0337311 12.1381 0.87409 13.632 2.36798C15.1259 3.86188 15.9663 5.88732 15.9688 8ZM15.0313 8C15.0313 6.60935 14.6189 5.24993 13.8463 4.09365C13.0737 2.93736 11.9755 2.03615 10.6907 1.50397C9.40595 0.971793 7.9922 0.832551 6.62827 1.10385C5.26435 1.37516 4.0115 2.04482 3.02816 3.02816C2.04482 4.01149 1.37516 5.26434 1.10386 6.62827C0.832555 7.9922 0.971797 9.40595 1.50398 10.6907C2.03615 11.9755 2.93737 13.0737 4.09365 13.8463C5.24993 14.6189 6.60935 15.0312 8 15.0312C9.86417 15.0292 11.6514 14.2877 12.9696 12.9696C14.2877 11.6514 15.0292 9.86417 15.0313 8Z" fill="white"/>
</svg>
