<svg width="26" height="26" viewBox="0 0 26 26" fill="none" xmlns="http://www.w3.org/2000/svg">
<path d="M13 0.8125C10.5895 0.8125 8.23322 1.52728 6.22899 2.86646C4.22477 4.20564 2.66267 6.10907 1.74022 8.33604C0.817781 10.563 0.576428 13.0135 1.04668 15.3777C1.51694 17.7418 2.67769 19.9134 4.38214 21.6179C6.08659 23.3223 8.2582 24.4831 10.6223 24.9533C12.9865 25.4236 15.437 25.1822 17.664 24.2598C19.8909 23.3373 21.7944 21.7752 23.1335 19.771C24.4727 17.7668 25.1875 15.4105 25.1875 13C25.1841 9.76872 23.899 6.67076 21.6141 4.3859C19.3292 2.10104 16.2313 0.815912 13 0.8125ZM16.4758 13.6633L11.7883 18.3508C11.7012 18.4379 11.5978 18.507 11.484 18.5541C11.3702 18.6013 11.2482 18.6255 11.125 18.6255C11.0018 18.6255 10.8798 18.6013 10.766 18.5541C10.6522 18.507 10.5488 18.4379 10.4617 18.3508C10.3746 18.2637 10.3055 18.1603 10.2584 18.0465C10.2112 17.9327 10.187 17.8107 10.187 17.6875C10.187 17.5643 10.2112 17.4423 10.2584 17.3285C10.3055 17.2147 10.3746 17.1113 10.4617 17.0242L14.4871 13L10.4617 8.97578C10.2858 8.79987 10.187 8.56128 10.187 8.3125C10.187 8.06372 10.2858 7.82513 10.4617 7.64922C10.6376 7.4733 10.8762 7.37448 11.125 7.37448C11.3738 7.37448 11.6124 7.4733 11.7883 7.64922L16.4758 12.3367C16.563 12.4238 16.6321 12.5272 16.6793 12.641C16.7265 12.7548 16.7507 12.8768 16.7507 13C16.7507 13.1232 16.7265 13.2452 16.6793 13.359C16.6321 13.4728 16.563 13.5762 16.4758 13.6633Z" fill="#FF3D00"/>
</svg>
